<svg width="95" height="90" viewBox="0 0 95 90" fill="none" xmlns="http://www.w3.org/2000/svg">
<path d="M78.8044 7.41757H31.5218C29.4318 7.41757 27.4274 8.19906 25.9495 9.59013C24.4716 10.9812 23.6414 12.8679 23.6414 14.8352V59.3406C23.6414 61.3079 24.4716 63.1946 25.9495 64.5857C27.4274 65.9767 29.4318 66.7582 31.5218 66.7582H78.8044C80.8944 66.7582 82.8988 65.9767 84.3767 64.5857C85.8546 63.1946 86.6848 61.3079 86.6848 59.3406V14.8352C86.6848 12.8679 85.8546 10.9812 84.3767 9.59013C82.8988 8.19906 80.8944 7.41757 78.8044 7.41757ZM55.1631 16.6895C57.7756 16.6895 60.2811 17.6664 62.1285 19.4052C63.9758 21.1441 65.0136 23.5024 65.0136 25.9615C65.0136 28.4206 63.9758 30.779 62.1285 32.5178C60.2811 34.2566 57.7756 35.2335 55.1631 35.2335C52.5506 35.2335 50.045 34.2566 48.1977 32.5178C46.3504 30.779 45.3126 28.4206 45.3126 25.9615C45.3126 23.5024 46.3504 21.1441 48.1977 19.4052C50.045 17.6664 52.5506 16.6895 55.1631 16.6895ZM74.8642 55.6319H35.462V54.7047C35.462 47.8471 44.3433 40.7967 55.1631 40.7967C65.9829 40.7967 74.8642 47.8471 74.8642 54.7047V55.6319Z" fill="white"/>
<path d="M15.7608 29.6703H7.88037V74.1758C7.88037 78.2666 11.4147 81.5934 15.7608 81.5934H63.0434V74.1758H15.7608V29.6703Z" fill="white"/>
</svg>
